<mxfile host="app.diagrams.net" modified="2024-05-15T05:12:22.940Z" agent="Mozilla/5.0 (Windows NT 10.0; Win64; x64) AppleWebKit/537.36 (KHTML, like Gecko) Chrome/124.0.0.0 Safari/537.36" etag="Le6Xiygmi4LZpvAHmRbb" version="24.4.0" type="device">
  <diagram name="Page-1" id="OYOowbFvxThvnsHqodFJ">
    <mxGraphModel dx="1393" dy="1338" grid="1" gridSize="10" guides="1" tooltips="1" connect="1" arrows="1" fold="1" page="0" pageScale="1" pageWidth="850" pageHeight="1100" math="0" shadow="0">
      <root>
        <mxCell id="0" />
        <mxCell id="1" parent="0" />
        <mxCell id="q-rZREDHsSATvhA7j-N2-54" value="" style="rounded=0;whiteSpace=wrap;html=1;" parent="1" vertex="1">
          <mxGeometry x="-79" y="140" width="549" height="950" as="geometry" />
        </mxCell>
        <mxCell id="-6D50s6y2qVF9iNGEM9t-3" value="" style="rounded=0;whiteSpace=wrap;html=1;" parent="1" vertex="1">
          <mxGeometry x="-85" y="-655" width="440" height="660" as="geometry" />
        </mxCell>
        <mxCell id="-6D50s6y2qVF9iNGEM9t-6" value="" style="group" parent="1" vertex="1" connectable="0">
          <mxGeometry x="30" y="-470" width="210" height="80" as="geometry" />
        </mxCell>
        <mxCell id="-6D50s6y2qVF9iNGEM9t-4" value="" style="ellipse;whiteSpace=wrap;html=1;" parent="-6D50s6y2qVF9iNGEM9t-6" vertex="1">
          <mxGeometry width="210" height="80" as="geometry" />
        </mxCell>
        <mxCell id="-6D50s6y2qVF9iNGEM9t-5" value="&lt;font face=&quot;Tahoma&quot; style=&quot;font-size: 18px;&quot;&gt;Login&lt;/font&gt;" style="text;html=1;align=center;verticalAlign=middle;whiteSpace=wrap;rounded=0;" parent="-6D50s6y2qVF9iNGEM9t-6" vertex="1">
          <mxGeometry x="70" y="25" width="60" height="30" as="geometry" />
        </mxCell>
        <mxCell id="-6D50s6y2qVF9iNGEM9t-7" value="" style="group" parent="1" vertex="1" connectable="0">
          <mxGeometry x="30" y="-370" width="210" height="80" as="geometry" />
        </mxCell>
        <mxCell id="-6D50s6y2qVF9iNGEM9t-8" value="" style="ellipse;whiteSpace=wrap;html=1;" parent="-6D50s6y2qVF9iNGEM9t-7" vertex="1">
          <mxGeometry width="210" height="80" as="geometry" />
        </mxCell>
        <mxCell id="-6D50s6y2qVF9iNGEM9t-9" value="&lt;font face=&quot;Tahoma&quot; style=&quot;font-size: 18px;&quot;&gt;Assign Credentials&lt;/font&gt;" style="text;html=1;align=center;verticalAlign=middle;whiteSpace=wrap;rounded=0;" parent="-6D50s6y2qVF9iNGEM9t-7" vertex="1">
          <mxGeometry x="70" y="25" width="60" height="30" as="geometry" />
        </mxCell>
        <mxCell id="-6D50s6y2qVF9iNGEM9t-10" value="" style="group" parent="1" vertex="1" connectable="0">
          <mxGeometry x="30" y="-140" width="210" height="80" as="geometry" />
        </mxCell>
        <mxCell id="-6D50s6y2qVF9iNGEM9t-11" value="" style="ellipse;whiteSpace=wrap;html=1;" parent="-6D50s6y2qVF9iNGEM9t-10" vertex="1">
          <mxGeometry width="210" height="80" as="geometry" />
        </mxCell>
        <mxCell id="-6D50s6y2qVF9iNGEM9t-12" value="&lt;font face=&quot;Tahoma&quot; style=&quot;font-size: 18px;&quot;&gt;Upload SOS&lt;/font&gt;" style="text;html=1;align=center;verticalAlign=middle;whiteSpace=wrap;rounded=0;" parent="-6D50s6y2qVF9iNGEM9t-10" vertex="1">
          <mxGeometry x="35" y="10" width="140" height="60" as="geometry" />
        </mxCell>
        <mxCell id="-6D50s6y2qVF9iNGEM9t-29" value="Admin" style="shape=umlActor;verticalLabelPosition=bottom;verticalAlign=top;html=1;outlineConnect=0;" parent="1" vertex="1">
          <mxGeometry x="-290" y="-380" width="40" height="90" as="geometry" />
        </mxCell>
        <mxCell id="-6D50s6y2qVF9iNGEM9t-66" value="" style="endArrow=classic;html=1;rounded=0;exitX=1;exitY=0.3333333333333333;exitDx=0;exitDy=0;exitPerimeter=0;entryX=0;entryY=0.5;entryDx=0;entryDy=0;" parent="1" source="-6D50s6y2qVF9iNGEM9t-29" target="-6D50s6y2qVF9iNGEM9t-4" edge="1">
          <mxGeometry width="50" height="50" relative="1" as="geometry">
            <mxPoint x="-240" y="10" as="sourcePoint" />
            <mxPoint x="30" y="-430" as="targetPoint" />
          </mxGeometry>
        </mxCell>
        <mxCell id="-6D50s6y2qVF9iNGEM9t-67" value="" style="endArrow=classic;html=1;rounded=0;exitX=1;exitY=0.3333333333333333;exitDx=0;exitDy=0;exitPerimeter=0;entryX=0;entryY=0.5;entryDx=0;entryDy=0;" parent="1" source="-6D50s6y2qVF9iNGEM9t-29" target="-6D50s6y2qVF9iNGEM9t-8" edge="1">
          <mxGeometry width="50" height="50" relative="1" as="geometry">
            <mxPoint x="-240" y="-340" as="sourcePoint" />
            <mxPoint x="40" y="-420" as="targetPoint" />
          </mxGeometry>
        </mxCell>
        <mxCell id="-6D50s6y2qVF9iNGEM9t-74" value="&lt;font face=&quot;Times New Roman&quot; style=&quot;font-size: 36px;&quot;&gt;&lt;b style=&quot;&quot;&gt;Admin View&lt;/b&gt;&lt;/font&gt;" style="text;html=1;align=center;verticalAlign=middle;whiteSpace=wrap;rounded=0;" parent="1" vertex="1">
          <mxGeometry x="-70" y="-620" width="440" height="50" as="geometry" />
        </mxCell>
        <mxCell id="q-rZREDHsSATvhA7j-N2-2" value="Batch Advisor" style="shape=umlActor;verticalLabelPosition=bottom;verticalAlign=top;html=1;outlineConnect=0;" parent="1" vertex="1">
          <mxGeometry x="860" y="-20" width="40" height="90" as="geometry" />
        </mxCell>
        <mxCell id="q-rZREDHsSATvhA7j-N2-3" value="" style="rounded=0;whiteSpace=wrap;html=1;" parent="1" vertex="1">
          <mxGeometry x="1020" y="-620" width="535" height="1300" as="geometry" />
        </mxCell>
        <mxCell id="q-rZREDHsSATvhA7j-N2-4" value="" style="group" parent="1" vertex="1" connectable="0">
          <mxGeometry x="1180" y="-460" width="210" height="80" as="geometry" />
        </mxCell>
        <mxCell id="q-rZREDHsSATvhA7j-N2-5" value="" style="ellipse;whiteSpace=wrap;html=1;" parent="q-rZREDHsSATvhA7j-N2-4" vertex="1">
          <mxGeometry width="210" height="80" as="geometry" />
        </mxCell>
        <mxCell id="q-rZREDHsSATvhA7j-N2-6" value="&lt;font face=&quot;Tahoma&quot; style=&quot;font-size: 18px;&quot;&gt;Login&lt;/font&gt;" style="text;html=1;align=center;verticalAlign=middle;whiteSpace=wrap;rounded=0;" parent="q-rZREDHsSATvhA7j-N2-4" vertex="1">
          <mxGeometry x="70" y="25" width="60" height="30" as="geometry" />
        </mxCell>
        <mxCell id="q-rZREDHsSATvhA7j-N2-7" value="" style="group" parent="1" vertex="1" connectable="0">
          <mxGeometry x="1180" y="-360" width="210" height="80" as="geometry" />
        </mxCell>
        <mxCell id="q-rZREDHsSATvhA7j-N2-8" value="" style="ellipse;whiteSpace=wrap;html=1;" parent="q-rZREDHsSATvhA7j-N2-7" vertex="1">
          <mxGeometry width="210" height="80" as="geometry" />
        </mxCell>
        <mxCell id="q-rZREDHsSATvhA7j-N2-9" value="&lt;font face=&quot;Tahoma&quot; style=&quot;font-size: 18px;&quot;&gt;Assign Credentials&lt;/font&gt;" style="text;html=1;align=center;verticalAlign=middle;whiteSpace=wrap;rounded=0;" parent="q-rZREDHsSATvhA7j-N2-7" vertex="1">
          <mxGeometry x="70" y="25" width="60" height="30" as="geometry" />
        </mxCell>
        <mxCell id="q-rZREDHsSATvhA7j-N2-10" value="" style="group" parent="1" vertex="1" connectable="0">
          <mxGeometry x="1180" y="-260" width="210" height="80" as="geometry" />
        </mxCell>
        <mxCell id="q-rZREDHsSATvhA7j-N2-11" value="" style="ellipse;whiteSpace=wrap;html=1;" parent="q-rZREDHsSATvhA7j-N2-10" vertex="1">
          <mxGeometry width="210" height="80" as="geometry" />
        </mxCell>
        <mxCell id="q-rZREDHsSATvhA7j-N2-12" value="&lt;font face=&quot;Tahoma&quot; style=&quot;font-size: 18px;&quot;&gt;View Student Profiles&lt;/font&gt;" style="text;html=1;align=center;verticalAlign=middle;whiteSpace=wrap;rounded=0;" parent="q-rZREDHsSATvhA7j-N2-10" vertex="1">
          <mxGeometry x="35" y="10" width="140" height="60" as="geometry" />
        </mxCell>
        <mxCell id="q-rZREDHsSATvhA7j-N2-13" value="" style="group" parent="1" vertex="1" connectable="0">
          <mxGeometry x="1090" y="-120" width="190" height="80" as="geometry" />
        </mxCell>
        <mxCell id="q-rZREDHsSATvhA7j-N2-14" value="" style="ellipse;whiteSpace=wrap;html=1;" parent="q-rZREDHsSATvhA7j-N2-13" vertex="1">
          <mxGeometry width="190" height="80" as="geometry" />
        </mxCell>
        <mxCell id="q-rZREDHsSATvhA7j-N2-15" value="&lt;font face=&quot;Tahoma&quot; style=&quot;font-size: 18px;&quot;&gt;Allocate Courses&lt;/font&gt;" style="text;html=1;align=center;verticalAlign=middle;whiteSpace=wrap;rounded=0;" parent="q-rZREDHsSATvhA7j-N2-13" vertex="1">
          <mxGeometry x="9.047619047619047" y="25" width="171.9047619047619" height="30" as="geometry" />
        </mxCell>
        <mxCell id="q-rZREDHsSATvhA7j-N2-16" value="" style="group" parent="1" vertex="1" connectable="0">
          <mxGeometry x="1175" y="-10" width="210" height="80" as="geometry" />
        </mxCell>
        <mxCell id="q-rZREDHsSATvhA7j-N2-17" value="" style="ellipse;whiteSpace=wrap;html=1;" parent="q-rZREDHsSATvhA7j-N2-16" vertex="1">
          <mxGeometry width="210" height="80" as="geometry" />
        </mxCell>
        <mxCell id="q-rZREDHsSATvhA7j-N2-18" value="&lt;font face=&quot;Tahoma&quot; style=&quot;font-size: 18px;&quot;&gt;View Application&lt;/font&gt;" style="text;html=1;align=center;verticalAlign=middle;whiteSpace=wrap;rounded=0;" parent="q-rZREDHsSATvhA7j-N2-16" vertex="1">
          <mxGeometry x="10" y="25" width="190" height="30" as="geometry" />
        </mxCell>
        <mxCell id="q-rZREDHsSATvhA7j-N2-19" value="" style="group" parent="1" vertex="1" connectable="0">
          <mxGeometry x="1093" y="150" width="190" height="70" as="geometry" />
        </mxCell>
        <mxCell id="q-rZREDHsSATvhA7j-N2-20" value="" style="ellipse;whiteSpace=wrap;html=1;" parent="q-rZREDHsSATvhA7j-N2-19" vertex="1">
          <mxGeometry width="190" height="70" as="geometry" />
        </mxCell>
        <mxCell id="q-rZREDHsSATvhA7j-N2-21" value="&lt;font face=&quot;Tahoma&quot; style=&quot;font-size: 18px;&quot;&gt;Approve Application&lt;/font&gt;" style="text;html=1;align=center;verticalAlign=middle;whiteSpace=wrap;rounded=0;" parent="q-rZREDHsSATvhA7j-N2-19" vertex="1">
          <mxGeometry x="9.047619047619047" y="21.875" width="171.9047619047619" height="26.25" as="geometry" />
        </mxCell>
        <mxCell id="q-rZREDHsSATvhA7j-N2-22" value="Student" style="shape=umlActor;verticalLabelPosition=bottom;verticalAlign=top;html=1;outlineConnect=0;" parent="1" vertex="1">
          <mxGeometry x="1750" y="-115" width="40" height="95" as="geometry" />
        </mxCell>
        <mxCell id="q-rZREDHsSATvhA7j-N2-23" value="Admin" style="shape=umlActor;verticalLabelPosition=bottom;verticalAlign=top;html=1;outlineConnect=0;" parent="1" vertex="1">
          <mxGeometry x="860" y="-370" width="40" height="90" as="geometry" />
        </mxCell>
        <mxCell id="q-rZREDHsSATvhA7j-N2-24" value="" style="group" parent="1" vertex="1" connectable="0">
          <mxGeometry x="1322" y="150" width="190" height="70" as="geometry" />
        </mxCell>
        <mxCell id="q-rZREDHsSATvhA7j-N2-25" value="" style="ellipse;whiteSpace=wrap;html=1;" parent="q-rZREDHsSATvhA7j-N2-24" vertex="1">
          <mxGeometry width="190" height="70" as="geometry" />
        </mxCell>
        <mxCell id="q-rZREDHsSATvhA7j-N2-26" value="&lt;font face=&quot;Tahoma&quot; style=&quot;font-size: 18px;&quot;&gt;Reject Application&lt;/font&gt;" style="text;html=1;align=center;verticalAlign=middle;whiteSpace=wrap;rounded=0;" parent="q-rZREDHsSATvhA7j-N2-24" vertex="1">
          <mxGeometry x="9.047619047619047" y="21.875" width="171.9047619047619" height="26.25" as="geometry" />
        </mxCell>
        <mxCell id="q-rZREDHsSATvhA7j-N2-27" value="" style="group" parent="1" vertex="1" connectable="0">
          <mxGeometry x="1188" y="320" width="210" height="80" as="geometry" />
        </mxCell>
        <mxCell id="q-rZREDHsSATvhA7j-N2-28" value="" style="ellipse;whiteSpace=wrap;html=1;" parent="q-rZREDHsSATvhA7j-N2-27" vertex="1">
          <mxGeometry width="210" height="80" as="geometry" />
        </mxCell>
        <mxCell id="q-rZREDHsSATvhA7j-N2-29" value="&lt;font face=&quot;Tahoma&quot; style=&quot;font-size: 18px;&quot;&gt;Send Application&lt;/font&gt;" style="text;html=1;align=center;verticalAlign=middle;whiteSpace=wrap;rounded=0;" parent="q-rZREDHsSATvhA7j-N2-27" vertex="1">
          <mxGeometry x="10" y="25" width="190" height="30" as="geometry" />
        </mxCell>
        <mxCell id="q-rZREDHsSATvhA7j-N2-30" value="" style="group" parent="1" vertex="1" connectable="0">
          <mxGeometry x="1189" y="420" width="210" height="80" as="geometry" />
        </mxCell>
        <mxCell id="q-rZREDHsSATvhA7j-N2-31" value="" style="ellipse;whiteSpace=wrap;html=1;" parent="q-rZREDHsSATvhA7j-N2-30" vertex="1">
          <mxGeometry width="210" height="80" as="geometry" />
        </mxCell>
        <mxCell id="q-rZREDHsSATvhA7j-N2-32" value="&lt;font face=&quot;Tahoma&quot; style=&quot;font-size: 18px;&quot;&gt;Track Application Status&lt;/font&gt;" style="text;html=1;align=center;verticalAlign=middle;whiteSpace=wrap;rounded=0;" parent="q-rZREDHsSATvhA7j-N2-30" vertex="1">
          <mxGeometry x="10" y="25" width="190" height="30" as="geometry" />
        </mxCell>
        <mxCell id="q-rZREDHsSATvhA7j-N2-33" value="&amp;lt;&amp;lt;include&amp;gt;&amp;gt;" style="html=1;verticalAlign=bottom;labelBackgroundColor=none;endArrow=open;endFill=0;dashed=1;rounded=0;exitX=1;exitY=0.5;exitDx=0;exitDy=0;entryX=0;entryY=0.5;entryDx=0;entryDy=0;" parent="1" source="q-rZREDHsSATvhA7j-N2-14" target="q-rZREDHsSATvhA7j-N2-46" edge="1">
          <mxGeometry width="160" relative="1" as="geometry">
            <mxPoint x="1280" y="-100.62" as="sourcePoint" />
            <mxPoint x="1380" y="-80" as="targetPoint" />
          </mxGeometry>
        </mxCell>
        <mxCell id="q-rZREDHsSATvhA7j-N2-34" value="&amp;lt;&amp;lt;extend&amp;gt;&amp;gt;" style="html=1;verticalAlign=bottom;labelBackgroundColor=none;endArrow=open;endFill=0;dashed=1;rounded=0;exitX=0.5;exitY=0;exitDx=0;exitDy=0;entryX=0.5;entryY=1;entryDx=0;entryDy=0;" parent="1" source="q-rZREDHsSATvhA7j-N2-20" target="q-rZREDHsSATvhA7j-N2-17" edge="1">
          <mxGeometry width="160" relative="1" as="geometry">
            <mxPoint x="1120" y="110" as="sourcePoint" />
            <mxPoint x="1280" y="110" as="targetPoint" />
          </mxGeometry>
        </mxCell>
        <mxCell id="q-rZREDHsSATvhA7j-N2-35" value="&amp;lt;&amp;lt;extend&amp;gt;&amp;gt;" style="html=1;verticalAlign=bottom;labelBackgroundColor=none;endArrow=open;endFill=0;dashed=1;rounded=0;exitX=0.5;exitY=0;exitDx=0;exitDy=0;entryX=0.5;entryY=1;entryDx=0;entryDy=0;" parent="1" source="q-rZREDHsSATvhA7j-N2-25" target="q-rZREDHsSATvhA7j-N2-17" edge="1">
          <mxGeometry width="160" relative="1" as="geometry">
            <mxPoint x="1280" y="100" as="sourcePoint" />
            <mxPoint x="1310" y="80" as="targetPoint" />
          </mxGeometry>
        </mxCell>
        <mxCell id="q-rZREDHsSATvhA7j-N2-45" value="" style="group" parent="1" vertex="1" connectable="0">
          <mxGeometry x="1380" y="-115" width="140" height="70" as="geometry" />
        </mxCell>
        <mxCell id="q-rZREDHsSATvhA7j-N2-46" value="" style="ellipse;whiteSpace=wrap;html=1;" parent="q-rZREDHsSATvhA7j-N2-45" vertex="1">
          <mxGeometry width="140" height="70" as="geometry" />
        </mxCell>
        <mxCell id="q-rZREDHsSATvhA7j-N2-47" value="&lt;font face=&quot;Tahoma&quot; style=&quot;font-size: 18px;&quot;&gt;View SOS&lt;/font&gt;" style="text;html=1;align=center;verticalAlign=middle;whiteSpace=wrap;rounded=0;" parent="q-rZREDHsSATvhA7j-N2-45" vertex="1">
          <mxGeometry x="6.666666666666667" y="21.875" width="126.66666666666667" height="26.25" as="geometry" />
        </mxCell>
        <mxCell id="q-rZREDHsSATvhA7j-N2-48" value="&lt;font face=&quot;Times New Roman&quot; style=&quot;font-size: 36px;&quot;&gt;&lt;b style=&quot;&quot;&gt;Batch Advisory&lt;/b&gt;&lt;/font&gt;" style="text;html=1;align=center;verticalAlign=middle;whiteSpace=wrap;rounded=0;" parent="1" vertex="1">
          <mxGeometry x="1057.5" y="-570" width="440" height="50" as="geometry" />
        </mxCell>
        <mxCell id="q-rZREDHsSATvhA7j-N2-49" value="" style="group" parent="1" vertex="1" connectable="0">
          <mxGeometry x="30" y="-250" width="210" height="80" as="geometry" />
        </mxCell>
        <mxCell id="q-rZREDHsSATvhA7j-N2-50" value="" style="ellipse;whiteSpace=wrap;html=1;" parent="q-rZREDHsSATvhA7j-N2-49" vertex="1">
          <mxGeometry width="210" height="80" as="geometry" />
        </mxCell>
        <mxCell id="q-rZREDHsSATvhA7j-N2-51" value="&lt;font face=&quot;Tahoma&quot; style=&quot;font-size: 18px;&quot;&gt;Update Credentials&lt;/font&gt;" style="text;html=1;align=center;verticalAlign=middle;whiteSpace=wrap;rounded=0;" parent="q-rZREDHsSATvhA7j-N2-49" vertex="1">
          <mxGeometry x="35" y="10" width="140" height="60" as="geometry" />
        </mxCell>
        <mxCell id="q-rZREDHsSATvhA7j-N2-52" value="" style="endArrow=classic;html=1;rounded=0;exitX=1;exitY=0.3333333333333333;exitDx=0;exitDy=0;exitPerimeter=0;entryX=0;entryY=0.5;entryDx=0;entryDy=0;" parent="1" source="-6D50s6y2qVF9iNGEM9t-29" target="q-rZREDHsSATvhA7j-N2-50" edge="1">
          <mxGeometry width="50" height="50" relative="1" as="geometry">
            <mxPoint x="-240" y="-340" as="sourcePoint" />
            <mxPoint x="40" y="-320" as="targetPoint" />
          </mxGeometry>
        </mxCell>
        <mxCell id="q-rZREDHsSATvhA7j-N2-53" value="" style="endArrow=classic;html=1;rounded=0;exitX=1;exitY=0.3333333333333333;exitDx=0;exitDy=0;exitPerimeter=0;entryX=0;entryY=0.5;entryDx=0;entryDy=0;" parent="1" source="-6D50s6y2qVF9iNGEM9t-29" target="-6D50s6y2qVF9iNGEM9t-11" edge="1">
          <mxGeometry width="50" height="50" relative="1" as="geometry">
            <mxPoint x="-240" y="-340" as="sourcePoint" />
            <mxPoint x="40" y="-200" as="targetPoint" />
          </mxGeometry>
        </mxCell>
        <mxCell id="q-rZREDHsSATvhA7j-N2-55" value="" style="group" parent="1" vertex="1" connectable="0">
          <mxGeometry x="91" y="280" width="210" height="80" as="geometry" />
        </mxCell>
        <mxCell id="q-rZREDHsSATvhA7j-N2-56" value="" style="ellipse;whiteSpace=wrap;html=1;" parent="q-rZREDHsSATvhA7j-N2-55" vertex="1">
          <mxGeometry width="210" height="80" as="geometry" />
        </mxCell>
        <mxCell id="q-rZREDHsSATvhA7j-N2-57" value="&lt;font face=&quot;Tahoma&quot; style=&quot;font-size: 18px;&quot;&gt;Login&lt;/font&gt;" style="text;html=1;align=center;verticalAlign=middle;whiteSpace=wrap;rounded=0;" parent="q-rZREDHsSATvhA7j-N2-55" vertex="1">
          <mxGeometry x="70" y="25" width="60" height="30" as="geometry" />
        </mxCell>
        <mxCell id="q-rZREDHsSATvhA7j-N2-58" value="" style="group" parent="1" vertex="1" connectable="0">
          <mxGeometry x="90" y="510" width="210" height="80" as="geometry" />
        </mxCell>
        <mxCell id="q-rZREDHsSATvhA7j-N2-59" value="" style="ellipse;whiteSpace=wrap;html=1;" parent="q-rZREDHsSATvhA7j-N2-58" vertex="1">
          <mxGeometry width="210" height="80" as="geometry" />
        </mxCell>
        <mxCell id="q-rZREDHsSATvhA7j-N2-60" value="&lt;font face=&quot;Tahoma&quot; style=&quot;font-size: 18px;&quot;&gt;View Student Profiles&lt;/font&gt;" style="text;html=1;align=center;verticalAlign=middle;whiteSpace=wrap;rounded=0;" parent="q-rZREDHsSATvhA7j-N2-58" vertex="1">
          <mxGeometry x="10" y="25" width="190" height="30" as="geometry" />
        </mxCell>
        <mxCell id="q-rZREDHsSATvhA7j-N2-64" value="Admin" style="shape=umlActor;verticalLabelPosition=bottom;verticalAlign=top;html=1;outlineConnect=0;" parent="1" vertex="1">
          <mxGeometry x="-240" y="375" width="40" height="90" as="geometry" />
        </mxCell>
        <mxCell id="q-rZREDHsSATvhA7j-N2-65" value="" style="endArrow=classic;html=1;rounded=0;exitX=1;exitY=0.3333333333333333;exitDx=0;exitDy=0;exitPerimeter=0;entryX=0;entryY=0.5;entryDx=0;entryDy=0;" parent="1" source="q-rZREDHsSATvhA7j-N2-64" target="q-rZREDHsSATvhA7j-N2-56" edge="1">
          <mxGeometry width="50" height="50" relative="1" as="geometry">
            <mxPoint x="-190" y="765" as="sourcePoint" />
            <mxPoint x="80" y="325" as="targetPoint" />
          </mxGeometry>
        </mxCell>
        <mxCell id="q-rZREDHsSATvhA7j-N2-66" value="" style="endArrow=classic;html=1;rounded=0;exitX=1;exitY=0.3333333333333333;exitDx=0;exitDy=0;exitPerimeter=0;entryX=0;entryY=0.5;entryDx=0;entryDy=0;" parent="1" source="q-rZREDHsSATvhA7j-N2-64" target="q-rZREDHsSATvhA7j-N2-59" edge="1">
          <mxGeometry width="50" height="50" relative="1" as="geometry">
            <mxPoint x="-190" y="415" as="sourcePoint" />
            <mxPoint x="90" y="335" as="targetPoint" />
          </mxGeometry>
        </mxCell>
        <mxCell id="q-rZREDHsSATvhA7j-N2-67" value="&lt;font face=&quot;Times New Roman&quot; style=&quot;font-size: 36px;&quot;&gt;&lt;b style=&quot;&quot;&gt;Batch Advisor View&lt;/b&gt;&lt;/font&gt;" style="text;html=1;align=center;verticalAlign=middle;whiteSpace=wrap;rounded=0;" parent="1" vertex="1">
          <mxGeometry x="-35" y="160" width="440" height="50" as="geometry" />
        </mxCell>
        <mxCell id="q-rZREDHsSATvhA7j-N2-71" value="" style="endArrow=classic;html=1;rounded=0;exitX=1;exitY=0.3333333333333333;exitDx=0;exitDy=0;exitPerimeter=0;entryX=0;entryY=0.25;entryDx=0;entryDy=0;" parent="1" source="q-rZREDHsSATvhA7j-N2-64" target="q-rZREDHsSATvhA7j-N2-78" edge="1">
          <mxGeometry width="50" height="50" relative="1" as="geometry">
            <mxPoint x="-190" y="415" as="sourcePoint" />
            <mxPoint x="10" y="540" as="targetPoint" />
          </mxGeometry>
        </mxCell>
        <mxCell id="q-rZREDHsSATvhA7j-N2-76" value="" style="group" parent="1" vertex="1" connectable="0">
          <mxGeometry y="620" width="190" height="80" as="geometry" />
        </mxCell>
        <mxCell id="q-rZREDHsSATvhA7j-N2-77" value="" style="ellipse;whiteSpace=wrap;html=1;" parent="q-rZREDHsSATvhA7j-N2-76" vertex="1">
          <mxGeometry width="190" height="80" as="geometry" />
        </mxCell>
        <mxCell id="q-rZREDHsSATvhA7j-N2-78" value="&lt;font face=&quot;Tahoma&quot; style=&quot;font-size: 18px;&quot;&gt;Allocate Courses&lt;/font&gt;" style="text;html=1;align=center;verticalAlign=middle;whiteSpace=wrap;rounded=0;" parent="q-rZREDHsSATvhA7j-N2-76" vertex="1">
          <mxGeometry x="9.047619047619047" y="25" width="171.9047619047619" height="30" as="geometry" />
        </mxCell>
        <mxCell id="q-rZREDHsSATvhA7j-N2-79" value="&amp;lt;&amp;lt;include&amp;gt;&amp;gt;" style="html=1;verticalAlign=bottom;labelBackgroundColor=none;endArrow=open;endFill=0;dashed=1;rounded=0;exitX=1;exitY=0.5;exitDx=0;exitDy=0;entryX=0;entryY=0.5;entryDx=0;entryDy=0;" parent="1" source="q-rZREDHsSATvhA7j-N2-77" target="q-rZREDHsSATvhA7j-N2-97" edge="1">
          <mxGeometry width="160" relative="1" as="geometry">
            <mxPoint x="190" y="644.38" as="sourcePoint" />
            <mxPoint x="290" y="650" as="targetPoint" />
          </mxGeometry>
        </mxCell>
        <mxCell id="q-rZREDHsSATvhA7j-N2-84" value="" style="group" parent="1" vertex="1" connectable="0">
          <mxGeometry x="100" y="790" width="210" height="80" as="geometry" />
        </mxCell>
        <mxCell id="q-rZREDHsSATvhA7j-N2-85" value="" style="ellipse;whiteSpace=wrap;html=1;" parent="q-rZREDHsSATvhA7j-N2-84" vertex="1">
          <mxGeometry width="210" height="80" as="geometry" />
        </mxCell>
        <mxCell id="q-rZREDHsSATvhA7j-N2-86" value="&lt;font face=&quot;Tahoma&quot; style=&quot;font-size: 18px;&quot;&gt;View Application&lt;/font&gt;" style="text;html=1;align=center;verticalAlign=middle;whiteSpace=wrap;rounded=0;" parent="q-rZREDHsSATvhA7j-N2-84" vertex="1">
          <mxGeometry x="10" y="25" width="190" height="30" as="geometry" />
        </mxCell>
        <mxCell id="q-rZREDHsSATvhA7j-N2-90" value="" style="group" parent="1" vertex="1" connectable="0">
          <mxGeometry x="220" y="950" width="190" height="70" as="geometry" />
        </mxCell>
        <mxCell id="q-rZREDHsSATvhA7j-N2-91" value="" style="ellipse;whiteSpace=wrap;html=1;" parent="q-rZREDHsSATvhA7j-N2-90" vertex="1">
          <mxGeometry width="190" height="70" as="geometry" />
        </mxCell>
        <mxCell id="q-rZREDHsSATvhA7j-N2-92" value="&lt;font face=&quot;Tahoma&quot; style=&quot;font-size: 18px;&quot;&gt;Reject Application&lt;/font&gt;" style="text;html=1;align=center;verticalAlign=middle;whiteSpace=wrap;rounded=0;" parent="q-rZREDHsSATvhA7j-N2-90" vertex="1">
          <mxGeometry x="9.047619047619047" y="21.875" width="171.9047619047619" height="26.25" as="geometry" />
        </mxCell>
        <mxCell id="q-rZREDHsSATvhA7j-N2-93" value="&amp;lt;&amp;lt;extend&amp;gt;&amp;gt;" style="html=1;verticalAlign=bottom;labelBackgroundColor=none;endArrow=open;endFill=0;dashed=1;rounded=0;exitX=0.5;exitY=0;exitDx=0;exitDy=0;entryX=0.5;entryY=1;entryDx=0;entryDy=0;" parent="1" source="q-rZREDHsSATvhA7j-N2-88" target="q-rZREDHsSATvhA7j-N2-85" edge="1">
          <mxGeometry width="160" relative="1" as="geometry">
            <mxPoint x="-10" y="910" as="sourcePoint" />
            <mxPoint x="150" y="910" as="targetPoint" />
          </mxGeometry>
        </mxCell>
        <mxCell id="q-rZREDHsSATvhA7j-N2-94" value="&amp;lt;&amp;lt;extend&amp;gt;&amp;gt;" style="html=1;verticalAlign=bottom;labelBackgroundColor=none;endArrow=open;endFill=0;dashed=1;rounded=0;exitX=0.5;exitY=0;exitDx=0;exitDy=0;entryX=0.5;entryY=1;entryDx=0;entryDy=0;" parent="1" source="q-rZREDHsSATvhA7j-N2-91" target="q-rZREDHsSATvhA7j-N2-85" edge="1">
          <mxGeometry width="160" relative="1" as="geometry">
            <mxPoint x="150" y="900" as="sourcePoint" />
            <mxPoint x="180" y="880" as="targetPoint" />
          </mxGeometry>
        </mxCell>
        <mxCell id="q-rZREDHsSATvhA7j-N2-95" value="" style="endArrow=classic;html=1;rounded=0;exitX=1;exitY=0.3333333333333333;exitDx=0;exitDy=0;exitPerimeter=0;entryX=0;entryY=0.5;entryDx=0;entryDy=0;" parent="1" source="q-rZREDHsSATvhA7j-N2-64" target="q-rZREDHsSATvhA7j-N2-85" edge="1">
          <mxGeometry width="50" height="50" relative="1" as="geometry">
            <mxPoint x="-190" y="415" as="sourcePoint" />
            <mxPoint x="19" y="553" as="targetPoint" />
          </mxGeometry>
        </mxCell>
        <mxCell id="q-rZREDHsSATvhA7j-N2-87" value="" style="group" parent="1" vertex="1" connectable="0">
          <mxGeometry x="-20" y="950" width="190" height="70" as="geometry" />
        </mxCell>
        <mxCell id="q-rZREDHsSATvhA7j-N2-88" value="" style="ellipse;whiteSpace=wrap;html=1;" parent="q-rZREDHsSATvhA7j-N2-87" vertex="1">
          <mxGeometry width="190" height="70" as="geometry" />
        </mxCell>
        <mxCell id="q-rZREDHsSATvhA7j-N2-89" value="&lt;font face=&quot;Tahoma&quot; style=&quot;font-size: 18px;&quot;&gt;Approve Application&lt;/font&gt;" style="text;html=1;align=center;verticalAlign=middle;whiteSpace=wrap;rounded=0;" parent="q-rZREDHsSATvhA7j-N2-87" vertex="1">
          <mxGeometry x="9.047619047619047" y="21.875" width="171.9047619047619" height="26.25" as="geometry" />
        </mxCell>
        <mxCell id="q-rZREDHsSATvhA7j-N2-96" value="" style="group" parent="1" vertex="1" connectable="0">
          <mxGeometry x="290" y="625" width="140" height="70" as="geometry" />
        </mxCell>
        <mxCell id="q-rZREDHsSATvhA7j-N2-97" value="" style="ellipse;whiteSpace=wrap;html=1;" parent="q-rZREDHsSATvhA7j-N2-96" vertex="1">
          <mxGeometry width="140" height="70" as="geometry" />
        </mxCell>
        <mxCell id="q-rZREDHsSATvhA7j-N2-98" value="&lt;font face=&quot;Tahoma&quot; style=&quot;font-size: 18px;&quot;&gt;View SOS&lt;/font&gt;" style="text;html=1;align=center;verticalAlign=middle;whiteSpace=wrap;rounded=0;" parent="q-rZREDHsSATvhA7j-N2-96" vertex="1">
          <mxGeometry x="6.666666666666667" y="21.875" width="126.66666666666667" height="26.25" as="geometry" />
        </mxCell>
        <mxCell id="q-rZREDHsSATvhA7j-N2-99" value="" style="rounded=0;whiteSpace=wrap;html=1;" parent="1" vertex="1">
          <mxGeometry x="140" y="1140" width="610" height="760" as="geometry" />
        </mxCell>
        <mxCell id="q-rZREDHsSATvhA7j-N2-100" value="" style="group" parent="1" vertex="1" connectable="0">
          <mxGeometry x="305" y="1275" width="210" height="80" as="geometry" />
        </mxCell>
        <mxCell id="q-rZREDHsSATvhA7j-N2-101" value="" style="ellipse;whiteSpace=wrap;html=1;" parent="q-rZREDHsSATvhA7j-N2-100" vertex="1">
          <mxGeometry width="210" height="80" as="geometry" />
        </mxCell>
        <mxCell id="q-rZREDHsSATvhA7j-N2-102" value="&lt;font face=&quot;Tahoma&quot; style=&quot;font-size: 18px;&quot;&gt;Login&lt;/font&gt;" style="text;html=1;align=center;verticalAlign=middle;whiteSpace=wrap;rounded=0;" parent="q-rZREDHsSATvhA7j-N2-100" vertex="1">
          <mxGeometry x="70" y="25" width="60" height="30" as="geometry" />
        </mxCell>
        <mxCell id="q-rZREDHsSATvhA7j-N2-106" value="" style="group" parent="1" vertex="1" connectable="0">
          <mxGeometry x="310" y="1500" width="210" height="80" as="geometry" />
        </mxCell>
        <mxCell id="q-rZREDHsSATvhA7j-N2-107" value="" style="ellipse;whiteSpace=wrap;html=1;" parent="q-rZREDHsSATvhA7j-N2-106" vertex="1">
          <mxGeometry width="210" height="80" as="geometry" />
        </mxCell>
        <mxCell id="q-rZREDHsSATvhA7j-N2-108" value="&lt;font face=&quot;Tahoma&quot; style=&quot;font-size: 18px;&quot;&gt;Seelect Application Category&lt;/font&gt;" style="text;html=1;align=center;verticalAlign=middle;whiteSpace=wrap;rounded=0;" parent="q-rZREDHsSATvhA7j-N2-106" vertex="1">
          <mxGeometry x="35" y="10" width="140" height="60" as="geometry" />
        </mxCell>
        <mxCell id="q-rZREDHsSATvhA7j-N2-109" value="Admin" style="shape=umlActor;verticalLabelPosition=bottom;verticalAlign=top;html=1;outlineConnect=0;" parent="1" vertex="1">
          <mxGeometry x="-20" y="1450" width="40" height="90" as="geometry" />
        </mxCell>
        <mxCell id="q-rZREDHsSATvhA7j-N2-110" value="" style="endArrow=classic;html=1;rounded=0;exitX=1;exitY=0.3333333333333333;exitDx=0;exitDy=0;exitPerimeter=0;entryX=0;entryY=0.5;entryDx=0;entryDy=0;" parent="1" source="q-rZREDHsSATvhA7j-N2-109" target="q-rZREDHsSATvhA7j-N2-101" edge="1">
          <mxGeometry width="50" height="50" relative="1" as="geometry">
            <mxPoint x="35" y="1715" as="sourcePoint" />
            <mxPoint x="305" y="1275" as="targetPoint" />
          </mxGeometry>
        </mxCell>
        <mxCell id="q-rZREDHsSATvhA7j-N2-112" value="&lt;font face=&quot;Times New Roman&quot; style=&quot;font-size: 36px;&quot;&gt;&lt;b style=&quot;&quot;&gt;Student View&lt;/b&gt;&lt;/font&gt;" style="text;html=1;align=center;verticalAlign=middle;whiteSpace=wrap;rounded=0;" parent="1" vertex="1">
          <mxGeometry x="180" y="1160" width="440" height="50" as="geometry" />
        </mxCell>
        <mxCell id="q-rZREDHsSATvhA7j-N2-116" value="" style="endArrow=classic;html=1;rounded=0;exitX=1;exitY=0.3333333333333333;exitDx=0;exitDy=0;exitPerimeter=0;entryX=0;entryY=0.5;entryDx=0;entryDy=0;" parent="1" source="q-rZREDHsSATvhA7j-N2-109" target="q-rZREDHsSATvhA7j-N2-119" edge="1">
          <mxGeometry width="50" height="50" relative="1" as="geometry">
            <mxPoint x="35" y="1365" as="sourcePoint" />
            <mxPoint x="305.00000000000546" y="1495" as="targetPoint" />
          </mxGeometry>
        </mxCell>
        <mxCell id="q-rZREDHsSATvhA7j-N2-117" value="" style="endArrow=classic;html=1;rounded=0;exitX=1;exitY=0.3333333333333333;exitDx=0;exitDy=0;exitPerimeter=0;entryX=0;entryY=0.5;entryDx=0;entryDy=0;" parent="1" source="q-rZREDHsSATvhA7j-N2-109" target="q-rZREDHsSATvhA7j-N2-107" edge="1">
          <mxGeometry width="50" height="50" relative="1" as="geometry">
            <mxPoint x="35" y="1365" as="sourcePoint" />
            <mxPoint x="315" y="1505" as="targetPoint" />
          </mxGeometry>
        </mxCell>
        <mxCell id="q-rZREDHsSATvhA7j-N2-118" value="" style="group" parent="1" vertex="1" connectable="0">
          <mxGeometry x="310" y="1610" width="210" height="80" as="geometry" />
        </mxCell>
        <mxCell id="q-rZREDHsSATvhA7j-N2-119" value="" style="ellipse;whiteSpace=wrap;html=1;" parent="q-rZREDHsSATvhA7j-N2-118" vertex="1">
          <mxGeometry width="210" height="80" as="geometry" />
        </mxCell>
        <mxCell id="q-rZREDHsSATvhA7j-N2-120" value="&lt;font face=&quot;Tahoma&quot; style=&quot;font-size: 18px;&quot;&gt;Send Application&lt;/font&gt;" style="text;html=1;align=center;verticalAlign=middle;whiteSpace=wrap;rounded=0;" parent="q-rZREDHsSATvhA7j-N2-118" vertex="1">
          <mxGeometry x="10" y="25" width="190" height="30" as="geometry" />
        </mxCell>
        <mxCell id="q-rZREDHsSATvhA7j-N2-121" value="" style="group" parent="1" vertex="1" connectable="0">
          <mxGeometry x="310" y="1720" width="210" height="80" as="geometry" />
        </mxCell>
        <mxCell id="q-rZREDHsSATvhA7j-N2-122" value="" style="ellipse;whiteSpace=wrap;html=1;" parent="q-rZREDHsSATvhA7j-N2-121" vertex="1">
          <mxGeometry width="210" height="80" as="geometry" />
        </mxCell>
        <mxCell id="q-rZREDHsSATvhA7j-N2-123" value="&lt;font face=&quot;Tahoma&quot; style=&quot;font-size: 18px;&quot;&gt;Track Application Status&lt;/font&gt;" style="text;html=1;align=center;verticalAlign=middle;whiteSpace=wrap;rounded=0;" parent="q-rZREDHsSATvhA7j-N2-121" vertex="1">
          <mxGeometry x="10" y="25" width="190" height="30" as="geometry" />
        </mxCell>
        <mxCell id="q-rZREDHsSATvhA7j-N2-124" value="" style="endArrow=classic;html=1;rounded=0;exitX=1;exitY=0.3333333333333333;exitDx=0;exitDy=0;exitPerimeter=0;entryX=0;entryY=0.5;entryDx=0;entryDy=0;" parent="1" source="q-rZREDHsSATvhA7j-N2-109" target="q-rZREDHsSATvhA7j-N2-122" edge="1">
          <mxGeometry width="50" height="50" relative="1" as="geometry">
            <mxPoint x="35" y="1365" as="sourcePoint" />
            <mxPoint x="320" y="1500" as="targetPoint" />
          </mxGeometry>
        </mxCell>
        <mxCell id="q-rZREDHsSATvhA7j-N2-125" value="" style="group" parent="1" vertex="1" connectable="0">
          <mxGeometry x="-20" y="400" width="190" height="80" as="geometry" />
        </mxCell>
        <mxCell id="q-rZREDHsSATvhA7j-N2-126" value="" style="ellipse;whiteSpace=wrap;html=1;" parent="q-rZREDHsSATvhA7j-N2-125" vertex="1">
          <mxGeometry width="190" height="80" as="geometry" />
        </mxCell>
        <mxCell id="q-rZREDHsSATvhA7j-N2-127" value="&lt;font face=&quot;Tahoma&quot; style=&quot;font-size: 18px;&quot;&gt;Forgot Credentials&lt;span style=&quot;white-space: pre;&quot;&gt;&#x9;&lt;/span&gt;&lt;/font&gt;" style="text;html=1;align=center;verticalAlign=middle;whiteSpace=wrap;rounded=0;" parent="q-rZREDHsSATvhA7j-N2-125" vertex="1">
          <mxGeometry x="9.047619047619047" y="25" width="171.9047619047619" height="30" as="geometry" />
        </mxCell>
        <mxCell id="q-rZREDHsSATvhA7j-N2-128" value="&amp;lt;&amp;lt;include&amp;gt;&amp;gt;" style="html=1;verticalAlign=bottom;labelBackgroundColor=none;endArrow=open;endFill=0;dashed=1;rounded=0;exitX=1;exitY=0.5;exitDx=0;exitDy=0;entryX=0;entryY=0.5;entryDx=0;entryDy=0;" parent="1" source="q-rZREDHsSATvhA7j-N2-126" target="q-rZREDHsSATvhA7j-N2-130" edge="1">
          <mxGeometry width="160" relative="1" as="geometry">
            <mxPoint x="170" y="419.38" as="sourcePoint" />
            <mxPoint x="270" y="440" as="targetPoint" />
          </mxGeometry>
        </mxCell>
        <mxCell id="q-rZREDHsSATvhA7j-N2-129" value="" style="group" parent="1" vertex="1" connectable="0">
          <mxGeometry x="270" y="405" width="140" height="70" as="geometry" />
        </mxCell>
        <mxCell id="q-rZREDHsSATvhA7j-N2-130" value="" style="ellipse;whiteSpace=wrap;html=1;" parent="q-rZREDHsSATvhA7j-N2-129" vertex="1">
          <mxGeometry width="140" height="70" as="geometry" />
        </mxCell>
        <mxCell id="q-rZREDHsSATvhA7j-N2-131" value="&lt;font face=&quot;Tahoma&quot; style=&quot;font-size: 18px;&quot;&gt;Contact Admin&lt;/font&gt;" style="text;html=1;align=center;verticalAlign=middle;whiteSpace=wrap;rounded=0;" parent="q-rZREDHsSATvhA7j-N2-129" vertex="1">
          <mxGeometry x="6.666666666666667" y="21.875" width="126.66666666666667" height="26.25" as="geometry" />
        </mxCell>
        <mxCell id="q-rZREDHsSATvhA7j-N2-132" value="" style="endArrow=classic;html=1;rounded=0;exitX=1;exitY=0.3333333333333333;exitDx=0;exitDy=0;exitPerimeter=0;entryX=0;entryY=0.5;entryDx=0;entryDy=0;" parent="1" source="q-rZREDHsSATvhA7j-N2-64" target="q-rZREDHsSATvhA7j-N2-126" edge="1">
          <mxGeometry width="50" height="50" relative="1" as="geometry">
            <mxPoint x="-190" y="415" as="sourcePoint" />
            <mxPoint x="80" y="560" as="targetPoint" />
          </mxGeometry>
        </mxCell>
        <mxCell id="q-rZREDHsSATvhA7j-N2-133" value="" style="group" parent="1" vertex="1" connectable="0">
          <mxGeometry x="300" y="1390" width="190" height="80" as="geometry" />
        </mxCell>
        <mxCell id="q-rZREDHsSATvhA7j-N2-134" value="" style="ellipse;whiteSpace=wrap;html=1;" parent="q-rZREDHsSATvhA7j-N2-133" vertex="1">
          <mxGeometry width="190" height="80" as="geometry" />
        </mxCell>
        <mxCell id="q-rZREDHsSATvhA7j-N2-135" value="&lt;font face=&quot;Tahoma&quot; style=&quot;font-size: 18px;&quot;&gt;Forgot Credentials&lt;span style=&quot;white-space: pre;&quot;&gt;&#x9;&lt;/span&gt;&lt;/font&gt;" style="text;html=1;align=center;verticalAlign=middle;whiteSpace=wrap;rounded=0;" parent="q-rZREDHsSATvhA7j-N2-133" vertex="1">
          <mxGeometry x="9.047619047619047" y="25" width="171.9047619047619" height="30" as="geometry" />
        </mxCell>
        <mxCell id="q-rZREDHsSATvhA7j-N2-136" value="&amp;lt;&amp;lt;include&amp;gt;&amp;gt;" style="html=1;verticalAlign=bottom;labelBackgroundColor=none;endArrow=open;endFill=0;dashed=1;rounded=0;exitX=1;exitY=0.5;exitDx=0;exitDy=0;entryX=0;entryY=0.5;entryDx=0;entryDy=0;" parent="1" source="q-rZREDHsSATvhA7j-N2-134" target="q-rZREDHsSATvhA7j-N2-138" edge="1">
          <mxGeometry width="160" relative="1" as="geometry">
            <mxPoint x="490" y="1409.38" as="sourcePoint" />
            <mxPoint x="590" y="1430" as="targetPoint" />
          </mxGeometry>
        </mxCell>
        <mxCell id="q-rZREDHsSATvhA7j-N2-137" value="" style="group" parent="1" vertex="1" connectable="0">
          <mxGeometry x="590" y="1395" width="140" height="70" as="geometry" />
        </mxCell>
        <mxCell id="q-rZREDHsSATvhA7j-N2-138" value="" style="ellipse;whiteSpace=wrap;html=1;" parent="q-rZREDHsSATvhA7j-N2-137" vertex="1">
          <mxGeometry width="140" height="70" as="geometry" />
        </mxCell>
        <mxCell id="q-rZREDHsSATvhA7j-N2-139" value="&lt;font face=&quot;Tahoma&quot; style=&quot;font-size: 18px;&quot;&gt;Contact Admin&lt;/font&gt;" style="text;html=1;align=center;verticalAlign=middle;whiteSpace=wrap;rounded=0;" parent="q-rZREDHsSATvhA7j-N2-137" vertex="1">
          <mxGeometry x="6.666666666666667" y="21.875" width="126.66666666666667" height="26.25" as="geometry" />
        </mxCell>
        <mxCell id="q-rZREDHsSATvhA7j-N2-140" value="" style="endArrow=classic;html=1;rounded=0;exitX=1;exitY=0.3333333333333333;exitDx=0;exitDy=0;exitPerimeter=0;entryX=0;entryY=0.5;entryDx=0;entryDy=0;" parent="1" source="q-rZREDHsSATvhA7j-N2-109" target="q-rZREDHsSATvhA7j-N2-134" edge="1">
          <mxGeometry width="50" height="50" relative="1" as="geometry">
            <mxPoint x="35" y="1365" as="sourcePoint" />
            <mxPoint x="320" y="1510" as="targetPoint" />
          </mxGeometry>
        </mxCell>
        <mxCell id="YoKohjhbIocQukgVniL8-2" value="" style="endArrow=none;html=1;rounded=0;exitX=0;exitY=0.5;exitDx=0;exitDy=0;entryX=1;entryY=0.3333333333333333;entryDx=0;entryDy=0;entryPerimeter=0;" edge="1" parent="1" source="q-rZREDHsSATvhA7j-N2-5" target="q-rZREDHsSATvhA7j-N2-23">
          <mxGeometry width="50" height="50" relative="1" as="geometry">
            <mxPoint x="970" y="-260" as="sourcePoint" />
            <mxPoint x="870" y="-190" as="targetPoint" />
          </mxGeometry>
        </mxCell>
        <mxCell id="YoKohjhbIocQukgVniL8-3" value="" style="endArrow=none;html=1;rounded=0;exitX=0;exitY=0.5;exitDx=0;exitDy=0;entryX=1;entryY=0.3333333333333333;entryDx=0;entryDy=0;entryPerimeter=0;" edge="1" parent="1" source="q-rZREDHsSATvhA7j-N2-8" target="q-rZREDHsSATvhA7j-N2-23">
          <mxGeometry width="50" height="50" relative="1" as="geometry">
            <mxPoint x="1190" y="-410" as="sourcePoint" />
            <mxPoint x="900" y="-330" as="targetPoint" />
          </mxGeometry>
        </mxCell>
        <mxCell id="YoKohjhbIocQukgVniL8-4" value="" style="endArrow=none;html=1;rounded=0;exitX=1;exitY=0.3333333333333333;exitDx=0;exitDy=0;exitPerimeter=0;entryX=0;entryY=0.5;entryDx=0;entryDy=0;" edge="1" parent="1" source="q-rZREDHsSATvhA7j-N2-2" target="q-rZREDHsSATvhA7j-N2-5">
          <mxGeometry width="50" height="50" relative="1" as="geometry">
            <mxPoint x="1200" y="-40" as="sourcePoint" />
            <mxPoint x="1250" y="-90" as="targetPoint" />
          </mxGeometry>
        </mxCell>
        <mxCell id="YoKohjhbIocQukgVniL8-5" value="" style="endArrow=none;html=1;rounded=0;exitX=1;exitY=0.3333333333333333;exitDx=0;exitDy=0;exitPerimeter=0;entryX=0;entryY=0.5;entryDx=0;entryDy=0;" edge="1" parent="1" source="q-rZREDHsSATvhA7j-N2-2" target="q-rZREDHsSATvhA7j-N2-11">
          <mxGeometry width="50" height="50" relative="1" as="geometry">
            <mxPoint x="910" y="20" as="sourcePoint" />
            <mxPoint x="1190" y="-410" as="targetPoint" />
          </mxGeometry>
        </mxCell>
        <mxCell id="YoKohjhbIocQukgVniL8-6" value="" style="endArrow=none;html=1;rounded=0;exitX=1;exitY=0.3333333333333333;exitDx=0;exitDy=0;exitPerimeter=0;entryX=0;entryY=0.5;entryDx=0;entryDy=0;" edge="1" parent="1" source="q-rZREDHsSATvhA7j-N2-2" target="q-rZREDHsSATvhA7j-N2-15">
          <mxGeometry width="50" height="50" relative="1" as="geometry">
            <mxPoint x="960" y="110" as="sourcePoint" />
            <mxPoint x="1010" y="60" as="targetPoint" />
          </mxGeometry>
        </mxCell>
        <mxCell id="YoKohjhbIocQukgVniL8-7" value="" style="endArrow=none;html=1;rounded=0;exitX=1;exitY=0.3333333333333333;exitDx=0;exitDy=0;exitPerimeter=0;entryX=0;entryY=0.5;entryDx=0;entryDy=0;" edge="1" parent="1" source="q-rZREDHsSATvhA7j-N2-2" target="q-rZREDHsSATvhA7j-N2-17">
          <mxGeometry width="50" height="50" relative="1" as="geometry">
            <mxPoint x="910" y="20" as="sourcePoint" />
            <mxPoint x="1109" y="-70" as="targetPoint" />
          </mxGeometry>
        </mxCell>
        <mxCell id="YoKohjhbIocQukgVniL8-8" value="" style="group" vertex="1" connectable="0" parent="1">
          <mxGeometry x="1199" y="530" width="210" height="80" as="geometry" />
        </mxCell>
        <mxCell id="YoKohjhbIocQukgVniL8-9" value="" style="ellipse;whiteSpace=wrap;html=1;" vertex="1" parent="YoKohjhbIocQukgVniL8-8">
          <mxGeometry width="210" height="80" as="geometry" />
        </mxCell>
        <mxCell id="YoKohjhbIocQukgVniL8-10" value="&lt;font face=&quot;Tahoma&quot; style=&quot;font-size: 18px;&quot;&gt;Logout&lt;/font&gt;" style="text;html=1;align=center;verticalAlign=middle;whiteSpace=wrap;rounded=0;" vertex="1" parent="YoKohjhbIocQukgVniL8-8">
          <mxGeometry x="10" y="25" width="190" height="30" as="geometry" />
        </mxCell>
        <mxCell id="YoKohjhbIocQukgVniL8-11" value="" style="endArrow=none;html=1;rounded=0;entryX=0;entryY=0.3333333333333333;entryDx=0;entryDy=0;entryPerimeter=0;" edge="1" parent="1" target="q-rZREDHsSATvhA7j-N2-22">
          <mxGeometry width="50" height="50" relative="1" as="geometry">
            <mxPoint x="1400" y="360" as="sourcePoint" />
            <mxPoint x="1450" y="300" as="targetPoint" />
          </mxGeometry>
        </mxCell>
        <mxCell id="YoKohjhbIocQukgVniL8-13" value="" style="endArrow=none;html=1;rounded=0;entryX=0;entryY=0.3333333333333333;entryDx=0;entryDy=0;entryPerimeter=0;exitX=1;exitY=0.5;exitDx=0;exitDy=0;" edge="1" parent="1" source="q-rZREDHsSATvhA7j-N2-31" target="q-rZREDHsSATvhA7j-N2-22">
          <mxGeometry width="50" height="50" relative="1" as="geometry">
            <mxPoint x="1410" y="370" as="sourcePoint" />
            <mxPoint x="1760" y="-73" as="targetPoint" />
          </mxGeometry>
        </mxCell>
        <mxCell id="YoKohjhbIocQukgVniL8-14" value="" style="endArrow=none;html=1;rounded=0;exitX=1;exitY=0.5;exitDx=0;exitDy=0;" edge="1" parent="1" source="YoKohjhbIocQukgVniL8-9">
          <mxGeometry width="50" height="50" relative="1" as="geometry">
            <mxPoint x="1409" y="470" as="sourcePoint" />
            <mxPoint x="1750" y="-80" as="targetPoint" />
          </mxGeometry>
        </mxCell>
        <mxCell id="YoKohjhbIocQukgVniL8-15" value="" style="endArrow=none;html=1;rounded=0;exitX=1;exitY=0.3333333333333333;exitDx=0;exitDy=0;exitPerimeter=0;entryX=0.024;entryY=0.39;entryDx=0;entryDy=0;entryPerimeter=0;" edge="1" parent="1" source="q-rZREDHsSATvhA7j-N2-2" target="YoKohjhbIocQukgVniL8-9">
          <mxGeometry width="50" height="50" relative="1" as="geometry">
            <mxPoint x="720" y="360" as="sourcePoint" />
            <mxPoint x="1190" y="570" as="targetPoint" />
          </mxGeometry>
        </mxCell>
        <mxCell id="YoKohjhbIocQukgVniL8-16" value="" style="endArrow=none;html=1;rounded=0;entryX=1;entryY=0.5;entryDx=0;entryDy=0;exitX=0;exitY=0.3333333333333333;exitDx=0;exitDy=0;exitPerimeter=0;" edge="1" parent="1" source="q-rZREDHsSATvhA7j-N2-22" target="q-rZREDHsSATvhA7j-N2-5">
          <mxGeometry width="50" height="50" relative="1" as="geometry">
            <mxPoint x="1620" y="-310" as="sourcePoint" />
            <mxPoint x="1670" y="-360" as="targetPoint" />
          </mxGeometry>
        </mxCell>
        <mxCell id="YoKohjhbIocQukgVniL8-17" value="" style="endArrow=none;html=1;rounded=0;entryX=0;entryY=0.5;entryDx=0;entryDy=0;exitX=1;exitY=0.3333333333333333;exitDx=0;exitDy=0;exitPerimeter=0;" edge="1" parent="1" source="q-rZREDHsSATvhA7j-N2-23" target="YoKohjhbIocQukgVniL8-9">
          <mxGeometry width="50" height="50" relative="1" as="geometry">
            <mxPoint x="910" y="20" as="sourcePoint" />
            <mxPoint x="1219" y="580" as="targetPoint" />
          </mxGeometry>
        </mxCell>
      </root>
    </mxGraphModel>
  </diagram>
</mxfile>
